<svg xmlns="http://www.w3.org/2000/svg" xmlns:xlink="http://www.w3.org/1999/xlink" width="280" zoomAndPan="magnify" viewBox="0 0 224.87999 225" height="280" preserveAspectRatio="xMidYMid meet" version="1.0"><defs><g/><clipPath id="01699ffaae"><path d="M 14.058594 28 L 144 28 L 144 163 L 14.058594 163 Z M 14.058594 28 " clip-rule="nonzero"/></clipPath><clipPath id="ac9049ce79"><path d="M 69 0.0585938 L 209 0.0585938 L 209 64 L 69 64 Z M 69 0.0585938 " clip-rule="nonzero"/></clipPath></defs><g clip-path="url(#01699ffaae)"><path fill="#4be4ff" d="M 76.125 33.144531 C 100.714844 45.6875 152.125 71.800781 142.667969 98.601562 C 137.972656 111.917969 121.261719 171.050781 103.34375 161.09375 L 56.21875 134.898438 C 45.441406 146.109375 24.898438 150.074219 14 144.144531 C 24.113281 144.734375 33.234375 134.59375 38.769531 125.070312 C 31.335938 120.878906 22.871094 110.675781 27.703125 97.03125 L 46.628906 43.609375 C 53.445312 24.371094 64.335938 27.132812 76.125 33.144531 " fill-opacity="1" fill-rule="evenodd"/></g><path fill="#fbc84f" d="M 204.59375 62.484375 C 185.558594 64.949219 160.804688 77.785156 155.085938 96.746094 C 149.4375 115.484375 121.492188 174.234375 135.832031 164.546875 C 142.382812 160.121094 145.3125 158.140625 151.203125 154.152344 C 156.816406 150.355469 162.164062 146.738281 167.257812 143.292969 C 166.386719 148.867188 169.421875 156.175781 175.363281 155.214844 C 173.652344 150.546875 174.324219 140.921875 176.96875 136.726562 C 178.5625 135.644531 180.132812 134.59375 181.683594 133.546875 C 193.089844 125.824219 201.714844 93.371094 207.332031 78.558594 C 210.890625 69.167969 209.59375 61.839844 204.59375 62.484375 " fill-opacity="1" fill-rule="evenodd"/><g clip-path="url(#ac9049ce79)"><path fill="#ff3131" d="M 204.753906 54.722656 C 208.703125 53.578125 210.488281 47.855469 205.414062 45.078125 C 197.484375 40.738281 191.941406 37.597656 184.101562 33.304688 C 176.300781 29.039062 168.53125 24.789062 160.804688 20.5625 C 162.839844 10.953125 153.886719 0.128906 150.605469 0.441406 C 152.078125 4.269531 152.59375 9.277344 145.117188 11.980469 C 142.402344 10.496094 139.699219 9.015625 136.992188 7.535156 C 132.164062 4.890625 124.574219 3.332031 120.042969 4.058594 C 112.117188 5.339844 103.960938 6.660156 95.601562 8.007812 C 87.007812 9.394531 82.167969 10.371094 73.066406 11.835938 C 55.414062 14.683594 114.382812 49.390625 147.972656 60.796875 C 168.558594 67.789062 184.25 60.660156 204.753906 54.722656 " fill-opacity="1" fill-rule="evenodd"/></g><g fill="#292929" fill-opacity="1"><g transform="translate(73.908138, 212.088905)"><g><path d="M 7.371094 -10.53125 L 14.234375 -10.53125 C 15.648438 -10.53125 16.738281 -11.546875 16.738281 -12.855469 C 16.738281 -14.160156 15.503906 -15.140625 14.234375 -15.140625 L 7.371094 -15.140625 L 7.371094 -21.023438 L 14.925781 -21.023438 C 16.304688 -21.023438 17.464844 -21.96875 17.464844 -23.277344 C 17.464844 -24.546875 16.304688 -25.636719 14.925781 -25.636719 L 5.082031 -25.636719 C 3.484375 -25.636719 2.289062 -24.328125 2.289062 -23.058594 L 2.289062 -1.996094 C 2.289062 -0.761719 3.414062 0.328125 4.828125 0.328125 C 6.210938 0.328125 7.371094 -0.761719 7.371094 -1.996094 Z M 7.371094 -10.53125 "/></g></g></g><g fill="#292929" fill-opacity="1"><g transform="translate(91.553921, 212.088905)"><g><path d="M 5.808594 0.253906 C 7.515625 0.253906 8.53125 -0.398438 8.53125 -1.707031 C 8.53125 -2.398438 8.242188 -2.578125 7.878906 -2.976562 C 7.371094 -3.523438 7.335938 -3.703125 7.335938 -4.464844 L 7.335938 -23.964844 C 7.335938 -25.234375 6.246094 -26.214844 4.828125 -26.214844 C 3.414062 -26.214844 2.324219 -25.164062 2.324219 -23.964844 L 2.324219 -4.03125 C 2.324219 -0.21875 4.355469 0.253906 5.808594 0.253906 Z M 5.808594 0.253906 "/></g></g></g><g fill="#292929" fill-opacity="1"><g transform="translate(100.267784, 212.088905)"><g><path d="M 16.339844 -11.109375 C 16.339844 -16.011719 14.199219 -18.628906 8.933594 -18.628906 C 5.917969 -18.628906 2.722656 -17.757812 2.722656 -15.613281 C 2.722656 -14.707031 3.304688 -13.507812 4.828125 -13.507812 C 5.519531 -13.507812 5.917969 -13.761719 6.210938 -13.871094 C 6.933594 -14.199219 7.554688 -14.453125 8.570312 -14.453125 C 10.421875 -14.453125 11.328125 -13.652344 11.328125 -11.945312 L 11.328125 -10.785156 C 10.386719 -11.074219 9.441406 -11.148438 8.460938 -11.148438 C 3.667969 -11.148438 1.269531 -9.296875 1.269531 -5.59375 L 1.269531 -5.484375 C 1.269531 -2.035156 3.523438 0.253906 7.734375 0.253906 C 9.769531 0.253906 11.292969 -0.289062 12.636719 -1.378906 C 13.472656 -0.21875 14.378906 0.144531 15.722656 0.144531 C 17.648438 0.144531 18.335938 -0.582031 18.335938 -1.742188 C 18.335938 -2.503906 18.046875 -2.90625 17.503906 -3.121094 C 16.882812 -3.375 16.339844 -3.269531 16.339844 -4.355469 Z M 8.75 -7.625 C 9.476562 -7.625 10.421875 -7.515625 11.328125 -7.335938 L 11.328125 -4.71875 C 10.386719 -3.996094 9.441406 -3.777344 8.496094 -3.777344 C 6.933594 -3.777344 6.246094 -4.25 6.246094 -5.445312 L 6.246094 -5.554688 C 6.246094 -6.644531 6.644531 -7.625 8.75 -7.625 Z M 8.75 -7.625 "/></g></g></g><g fill="#292929" fill-opacity="1"><g transform="translate(118.204029, 212.088905)"><g><path d="M 1.632812 -6.679688 C 1.632812 -2.796875 3.996094 0.253906 9.113281 0.253906 C 11.292969 0.253906 15.359375 -0.289062 15.359375 -2.90625 C 15.359375 -3.738281 14.925781 -4.757812 13.035156 -4.757812 C 12.527344 -4.757812 12.273438 -4.683594 11.910156 -4.539062 C 11.183594 -4.25 10.566406 -3.921875 9.441406 -3.921875 C 7.445312 -3.921875 6.644531 -4.976562 6.644531 -6.679688 L 6.644531 -11.582031 C 6.644531 -13.289062 7.445312 -14.34375 9.441406 -14.34375 C 10.566406 -14.34375 11.148438 -14.015625 11.910156 -13.726562 C 12.417969 -13.542969 12.746094 -13.507812 13.109375 -13.507812 C 14.925781 -13.507812 15.359375 -14.488281 15.359375 -15.359375 C 15.359375 -18.011719 11.292969 -18.519531 9.152344 -18.519531 C 3.957031 -18.519531 1.632812 -15.46875 1.632812 -11.582031 Z M 1.632812 -6.679688 "/></g></g></g><g fill="#292929" fill-opacity="1"><g transform="translate(133.271898, 212.088905)"><g><path d="M 7.335938 -12.453125 L 7.335938 -23.964844 C 7.335938 -25.234375 6.246094 -26.214844 4.828125 -26.214844 C 3.414062 -26.214844 2.324219 -25.234375 2.324219 -23.964844 L 2.324219 -1.996094 C 2.324219 -0.726562 3.414062 0.253906 4.828125 0.253906 C 6.246094 0.253906 7.335938 -0.726562 7.335938 -1.996094 L 7.335938 -7.042969 L 7.734375 -7.40625 L 12.636719 -0.761719 C 13.109375 -0.109375 13.796875 0.253906 14.707031 0.253906 C 16.011719 0.253906 17.066406 -0.507812 17.140625 -1.742188 C 17.140625 -2.140625 16.992188 -2.722656 16.738281 -3.085938 L 11.402344 -10.128906 L 15.832031 -14.816406 L 15.796875 -14.816406 C 16.265625 -15.25 16.484375 -15.757812 16.484375 -16.339844 C 16.484375 -17.574219 15.433594 -18.484375 14.050781 -18.484375 C 13.472656 -18.484375 12.78125 -18.300781 12.347656 -17.863281 Z M 7.335938 -12.453125 "/></g></g></g></svg>