<svg xmlns="http://www.w3.org/2000/svg" xmlns:xlink="http://www.w3.org/1999/xlink" width="180" zoomAndPan="magnify" viewBox="0 0 224.87999 225" height="180" preserveAspectRatio="xMidYMid meet" version="1.0"><path fill="#4be4ff" d="M 70.9375 50.75 C 99.039062 65.082031 157.796875 94.925781 146.988281 125.558594 C 141.621094 140.78125 122.523438 208.359375 102.046875 196.980469 L 48.1875 167.042969 C 35.867188 179.855469 12.390625 184.386719 -0.0664062 177.609375 C 11.492188 178.285156 21.917969 166.691406 28.242188 155.808594 C 19.746094 151.019531 10.070312 139.359375 15.597656 123.761719 L 37.222656 62.707031 C 45.015625 40.71875 57.460938 43.878906 70.9375 50.75 " fill-opacity="1" fill-rule="evenodd"/><path fill="#fbc84f" d="M 217.761719 84.28125 C 196.007812 87.097656 167.71875 101.765625 161.183594 123.4375 C 154.726562 144.855469 122.785156 212 139.175781 200.929688 C 146.664062 195.871094 150.011719 193.605469 156.746094 189.046875 C 163.15625 184.707031 169.269531 180.574219 175.089844 176.636719 C 174.097656 183.007812 177.5625 191.359375 184.355469 190.261719 C 182.402344 184.929688 183.167969 173.929688 186.1875 169.132812 C 188.011719 167.894531 189.808594 166.691406 191.578125 165.496094 C 204.617188 156.671875 214.476562 119.582031 220.894531 102.652344 C 224.960938 91.921875 223.476562 83.542969 217.761719 84.28125 " fill-opacity="1" fill-rule="evenodd"/><path fill="#ff3131" d="M 217.945312 75.410156 C 222.460938 74.101562 224.5 67.5625 218.699219 64.386719 C 209.636719 59.425781 203.304688 55.835938 194.34375 50.933594 C 185.425781 46.054688 176.546875 41.195312 167.714844 36.367188 C 170.042969 25.382812 159.8125 13.011719 156.058594 13.371094 C 157.746094 17.746094 158.332031 23.472656 149.785156 26.558594 C 146.683594 24.863281 143.59375 23.171875 140.503906 21.480469 C 134.984375 18.457031 126.308594 16.675781 121.128906 17.507812 C 112.070312 18.972656 102.75 20.476562 93.199219 22.019531 C 83.375 23.605469 77.839844 24.71875 67.441406 26.394531 C 47.265625 29.652344 114.660156 69.316406 153.050781 82.351562 C 176.582031 90.34375 194.515625 82.195312 217.945312 75.410156 " fill-opacity="1" fill-rule="evenodd"/></svg>